<svg xmlns="http://www.w3.org/2000/svg" viewBox="0 0 178.7 238.25"><defs><style>.cls-1{opacity:0.5;}.cls-2{fill:none;}.cls-3{fill:#f90;}</style></defs><g id="Layer_2" data-name="Layer 2"><g id="Layer_1-2" data-name="Layer 1"><g class="cls-1"><path d="M91.32,1.09H87.88A7,7,0,0,0,81.32,5.7C73.19,28.47,63.88,54.52,54.44,80.93h70C115,54.2,105.72,27.92,97.88,5.72A7,7,0,0,0,91.32,1.09Z"/><path d="M132.8,104.63H46l-7.82,21.88H140.52Z"/><path d="M159.69,180.83c-3.33-9.45-7-19.75-10.79-30.58H29.68c-3.82,10.69-7.49,21-10.92,30.58H.37v17.38h177.7V180.83Zm-106,6.47a9.49,9.49,0,0,1-9.49-9.49c.5-12.59,18.48-12.59,19,0A9.49,9.49,0,0,1,53.69,187.3Zm36.2,0a9.49,9.49,0,0,1-9.49-9.49c.5-12.59,18.49-12.59,19,0A9.49,9.49,0,0,1,89.89,187.3Zm34.8,0a9.49,9.49,0,0,1-9.49-9.49c.5-12.59,18.48-12.59,19,0A9.49,9.49,0,0,1,124.69,187.3Z"/></g><g class="cls-1"><path d="M42,218.07H40.17v6.68a11.64,11.64,0,0,0,1.89.11c2.34,0,4.5-.86,4.5-3.41C46.56,219.06,44.51,218.07,42,218.07Z"/><path d="M165.41,210.56a9.63,9.63,0,0,0-2.24.2v6.4h2.31c2.42,0,4-1.33,4-3.33C169.44,211.57,167.8,210.58,165.41,210.56Z"/><path d="M46,213.42c0-2.06-1.56-2.86-3.85-2.86a9.64,9.64,0,0,0-2,.15v5.64h2C44.61,216.35,46,215.11,46,213.42Z"/><path d="M1,200v34.24a4.06,4.06,0,0,0,4.06,4.06H174.64a4.06,4.06,0,0,0,4.06-4.06V200Zm10.85,26.78a9.1,9.1,0,0,1-4.47-1.12l.57-1.9A8,8,0,0,0,12,224.86c2.31,0,3.66-1.23,3.66-3s-.93-2.58-3.3-3.49c-2.86-1-4.63-2.49-4.63-5,0-2.73,2.27-4.76,5.67-4.76a8,8,0,0,1,3.88.85l-.63,1.85a7,7,0,0,0-3.33-.83c-2.39,0-3.3,1.43-3.3,2.63,0,1.63,1.07,2.44,3.49,3.38,3,1.14,4.47,2.57,4.47,5.14S16,226.73,11.85,226.73ZM34,219.16c0,5.38-2.84,7.59-6.63,7.59-3.59,0-6.29-2.05-6.29-7.48V208.94h2.28v10.38c0,3.92,1.75,5.59,4.09,5.59,2.6,0,4.26-1.72,4.26-5.59V208.94H34ZM47.47,225c-1.22,1.11-3.2,1.63-6.06,1.63a27.56,27.56,0,0,1-3.51-.2V209.18a21.74,21.74,0,0,1,4.14-.37c2.26,0,3.72.39,4.81,1.28a3.65,3.65,0,0,1,1.45,3.09,4.16,4.16,0,0,1-3,3.85v.05a4.53,4.53,0,0,1,3.61,4.4A4.72,4.72,0,0,1,47.47,225Zm15.26-14.12H57.38v15.6H55.09v-15.6H49.76v-1.93h13ZM67,226.47H64.68V208.94H67Zm14.92-15.6H76.51v15.6H74.23v-15.6H68.9v-1.93h13Zm11.7,15.6H83.82V208.94h2.26v15.63h7.49Zm12.38,0H96.09V208.94h9.46v1.9h-7.2v5.54h6.81v1.87H98.35v6.32H106Zm17.88-15.63h-7.17v5.83h6.63v1.87h-6.63v7.93h-2.27V208.94h9.44Zm5.49,15.63h-2.26V208.94h2.26Zm13.54,0-2.23-3.88c-.91-1.48-1.48-2.44-2-3.45h0c-.5,1-1,2-1.9,3.48l-2.11,3.85h-2.6l5.36-8.87-5.15-8.66h2.63l2.31,4.11c.65,1.15,1.15,2,1.61,3h.08c.5-1,.94-1.85,1.59-3l2.39-4.11h2.6L140,217.47l5.46,9Zm15.11,0h-9.85V208.94h9.46v1.9h-7.2v5.54h6.81v1.87h-6.81v6.32H158Zm12,0a23.85,23.85,0,0,1-1.17-4.19c-.52-2.42-1.45-3.33-3.51-3.4h-2.13v7.59h-2.26V209.18a23,23,0,0,1,4.34-.37c2.42,0,4,.44,5.07,1.43a4.39,4.39,0,0,1,1.38,3.33,4.6,4.6,0,0,1-3.3,4.47v.08c1.35.47,2.15,1.72,2.57,3.54a28.38,28.38,0,0,0,1.35,4.81Z"/></g><path class="cls-2" d="M43.83,176.72a9.49,9.49,0,0,0,19,0C62.31,164.14,44.33,164.14,43.83,176.72Z"/><path class="cls-2" d="M80,176.72a9.49,9.49,0,0,0,19,0C98.51,164.14,80.53,164.14,80,176.72Z"/><path class="cls-2" d="M114.83,176.72a9.49,9.49,0,0,0,19,0C133.31,164.14,115.33,164.14,114.83,176.72Z"/><path class="cls-3" d="M92.65,0H85.81a4.54,4.54,0,0,0-4.29,3L54.07,79.85h70C114.39,52.47,104.9,25.56,96.94,3A4.54,4.54,0,0,0,92.65,0Z"/><path class="cls-3" d="M132.42,103.55H45.6c-2.62,7.35-5.24,14.66-7.81,21.87H140.14C137.61,118.23,135,110.91,132.42,103.55Z"/><path class="cls-3" d="M159.32,179.74c-3.34-9.45-7-19.75-10.79-30.57H29.31c-3.82,10.68-7.49,21-10.93,30.57H0v17.39H177.7V179.74Zm-106,6.47a9.49,9.49,0,0,1-9.49-9.49c.5-12.58,18.48-12.58,19,0A9.49,9.49,0,0,1,53.32,186.21Zm36.2,0A9.49,9.49,0,0,1,80,176.72c.5-12.58,18.48-12.58,19,0A9.49,9.49,0,0,1,89.52,186.21Zm34.8,0a9.49,9.49,0,0,1-9.49-9.49c.5-12.58,18.48-12.58,19,0A9.49,9.49,0,0,1,124.32,186.21Z"/><path class="cls-3" d="M41.47,217.44H39.6v6.68a11.7,11.7,0,0,0,1.9.11c2.34,0,4.5-.86,4.5-3.41C46,218.43,43.94,217.44,41.47,217.44Z"/><path class="cls-3" d="M164.84,209.93a9.76,9.76,0,0,0-2.24.2v6.4h2.32c2.41,0,4-1.32,4-3.33C168.87,210.94,167.23,210,164.84,209.93Z"/><path class="cls-3" d="M45.45,212.79c0-2.06-1.56-2.86-3.85-2.86a9.64,9.64,0,0,0-2,.15v5.65h2C44,215.73,45.45,214.48,45.45,212.79Z"/><path class="cls-3" d="M0,199v34.24a4.06,4.06,0,0,0,4.06,4.06H173.64a4.06,4.06,0,0,0,4.06-4.06V199ZM11.29,226.1A9,9,0,0,1,6.81,225l.58-1.9a7.92,7.92,0,0,0,4.05,1.15c2.32,0,3.67-1.22,3.67-3s-.94-2.58-3.3-3.49c-2.86-1-4.63-2.49-4.63-5,0-2.73,2.26-4.76,5.67-4.76a8,8,0,0,1,3.87.86l-.62,1.84a7.07,7.07,0,0,0-3.33-.83c-2.39,0-3.3,1.43-3.3,2.63,0,1.64,1.06,2.44,3.48,3.38,3,1.14,4.47,2.57,4.47,5.15S15.42,226.1,11.29,226.1Zm22.12-7.57c0,5.39-2.83,7.6-6.63,7.6-3.59,0-6.29-2.06-6.29-7.49V208.32h2.29v10.37c0,3.93,1.74,5.59,4.08,5.59,2.6,0,4.26-1.72,4.26-5.59V208.32h2.29Zm13.5,5.83c-1.23,1.12-3.2,1.64-6.06,1.64a27,27,0,0,1-3.51-.21V208.55a21.73,21.73,0,0,1,4.13-.36c2.26,0,3.72.39,4.81,1.27a3.67,3.67,0,0,1,1.46,3.09,4.16,4.16,0,0,1-3,3.85v0a4.53,4.53,0,0,1,3.62,4.4A4.74,4.74,0,0,1,46.91,224.36Zm15.26-14.12H56.81v15.6H54.52v-15.6H49.19v-1.92h13Zm4.21,15.6H64.12V208.32h2.26Zm14.92-15.6H76v15.6H73.66v-15.6H68.33v-1.92h13ZM93,225.84H83.25V208.32h2.26v15.62H93Zm12.38,0H95.52V208.32H105v1.89h-7.2v5.54h6.81v1.87H97.79v6.32h7.59Zm17.89-15.63h-7.18V216h6.63v1.87h-6.63v7.93h-2.26V208.32h9.44Zm5.48,15.63h-2.26V208.32h2.26Zm13.55,0L140.06,222c-.91-1.49-1.48-2.45-2-3.46H138c-.49,1-1,2-1.9,3.48l-2.1,3.85h-2.6l5.35-8.87-5.15-8.65h2.63l2.32,4.1c.65,1.15,1.14,2,1.61,3h.08c.49-1,.93-1.85,1.58-3l2.39-4.1h2.6l-5.33,8.52,5.46,9Zm15.1,0h-9.85V208.32H157v1.89h-7.2v5.54h6.81v1.87h-6.81v6.32h7.59Zm12,0a23,23,0,0,1-1.16-4.19c-.52-2.41-1.46-3.32-3.52-3.4H162.6v7.59h-2.26V208.55a23.89,23.89,0,0,1,4.34-.36c2.42,0,4,.44,5.07,1.43a4.33,4.33,0,0,1,1.38,3.32,4.6,4.6,0,0,1-3.3,4.48v.07c1.35.47,2.16,1.72,2.57,3.54a28.07,28.07,0,0,0,1.36,4.81Z"/></g></g></svg>